<?xml version="1.0" encoding="utf-8"?>
<!-- Generator: Adobe Illustrator 26.0.3, SVG Export Plug-In . SVG Version: 6.00 Build 0)  -->
<svg version="1.1" id="Capa_1" xmlns="http://www.w3.org/2000/svg" xmlns:xlink="http://www.w3.org/1999/xlink" x="0px" y="0px"
	 viewBox="0 0 500 500" style="enable-background:new 0 0 500 500;" xml:space="preserve">
<style type="text/css">
	.st0{fill:#f74550;}
	.st1{fill:#FFFFFF;}
</style>
<circle class="st0" cx="250" cy="250" r="250"/>
<path class="st1" d="M438.19,206.02L369.12,98.86c-2.97-4.61-8.23-7.21-13.69-6.78c-0.78,0.06-1.55,0.18-2.3,0.36l-193.72-2.39
	h-0.18c-5.77,0.01-11.01,3.34-13.47,8.56L60.85,279.25c-2.16,4.6-1.83,9.98,0.86,14.28l0.2,0.29l70.44,109.3
	c2.76,4.28,7.5,6.85,12.59,6.83l201-0.5c5.89-0.01,11.21-3.5,13.58-8.89l79.77-180.46C441.32,215.53,440.91,210.23,438.19,206.02
	 M359.05,138.23l41.53,64.43l-70.71,1.44L359.05,138.23z M168.64,119.97l164.99,2.03l-66.55,150.3l-169.38-1.42L168.64,119.97z
	 M174.87,301.33l-30.94,64.75l-42.12-65.36L174.87,301.33z M336.15,379.63l-172.51,0.43l37.54-78.55l75.44,0.65h0.13
	c5.9,0,11.24-3.48,13.63-8.87l28.78-65.18l84.68-1.69L336.15,379.63z"/>
</svg>
