<svg xmlns="http://www.w3.org/2000/svg" width="155.598" height="37.53" viewBox="0 0 155.598 37.53">
  <g id="Grupo_48" data-name="Grupo 48" transform="translate(-141.578 -192.804)">
    <g id="Grupo_45" data-name="Grupo 45" transform="translate(141.578 192.804)">
      <path id="Trazado_3" data-name="Trazado 3" d="M1238.694,555.443l-8.1-12.571a1.749,1.749,0,0,0-1.877-.753l-22.726-.281h-.022a1.748,1.748,0,0,0-1.582,1l-9.96,21.191a1.749,1.749,0,0,0,.1,1.675l.023.035h0l8.264,12.823a1.747,1.747,0,0,0,1.469.8h0l23.58-.059a1.748,1.748,0,0,0,1.594-1.041l9.36-21.171A1.747,1.747,0,0,0,1238.694,555.443Zm-9.285-7.952,4.872,7.56-8.293.167Zm-22.337-2.143,19.356.239-7.807,17.632-19.871-.167Zm.731,21.277-3.63,7.594-4.94-7.665Zm18.922,9.19-20.239.05,4.4-9.215,8.85.075h.015a1.749,1.749,0,0,0,1.6-1.04l3.385-7.645,9.933-.2Z" transform="translate(-1194.26 -541.838)" fill="#f74550"/>
    </g>
    <g id="Grupo_46" data-name="Grupo 46" transform="translate(195.968 197.848)">
      <rect id="Rect치ngulo_427" data-name="Rect치ngulo 427" width="4.546" height="19.158" transform="translate(80.884 7.026)" fill="#fff"/>
      <path id="Trazado_4" data-name="Trazado 4" d="M1453.124,577.6a9.463,9.463,0,0,0-6.4-2.493,9.907,9.907,0,0,0,0,19.808,9.465,9.465,0,0,0,6.4-2.493v2.168h4.546V575.431h-4.546Zm-6.007,13.418a6.172,6.172,0,1,1,6.007-6.17A6.09,6.09,0,0,1,1447.117,591.018Z" transform="translate(-1405.749 -568.406)" fill="#fff"/>
      <path id="Trazado_5" data-name="Trazado 5" d="M1381.654,575.107a8.221,8.221,0,0,0-5.926,2.534v-2.21h-4.546V594.59h4.546V584.5c.225-1.65,1.206-5.493,4.841-5.493,4.9,0,4.9,5.2,4.9,5.2V594.59h4.546V583.712A8.486,8.486,0,0,0,1381.654,575.107Z" transform="translate(-1363.113 -568.406)" fill="#fff"/>
      <path id="Trazado_6" data-name="Trazado 6" d="M1524.327,565.586a9.464,9.464,0,0,0-6.4,2.493V560.39h-4.546v24.679h4.546V582.9a9.465,9.465,0,0,0,6.4,2.493,9.907,9.907,0,0,0,0-19.808Zm-.389,15.911a6.172,6.172,0,1,1,6.007-6.17A6.09,6.09,0,0,1,1523.938,581.5Z" transform="translate(-1455.113 -558.885)" fill="#fff"/>
      <path id="Trazado_7" data-name="Trazado 7" d="M1609.715,570.028V565.96h-6.539v-5.57h-4.6v5.57h-2.658v4.068h2.658v8.9c0,4.182,2.966,6.121,6.653,6.121a9,9,0,0,0,4.258-.951V580.1a7.621,7.621,0,0,1-3.383.8c-1.749,0-2.927-.684-2.927-2.471v-8.4Z" transform="translate(-1508.508 -558.885)" fill="#fff"/>
      <path id="Trazado_8" data-name="Trazado 8" d="M1578.888,556.126a2.6,2.6,0,1,0,2.6,2.6A2.6,2.6,0,0,0,1578.888,556.126Z" transform="translate(-1495.81 -556.126)" fill="#fff"/>
      <rect id="Rect치ngulo_428" data-name="Rect치ngulo 428" width="4.546" height="19.158" transform="translate(0.404 7.026)" fill="#fff"/>
      <path id="Trazado_9" data-name="Trazado 9" d="M1350.923,556.126a2.6,2.6,0,1,0,2.6,2.6A2.6,2.6,0,0,0,1350.923,556.126Z" transform="translate(-1348.325 -556.126)" fill="#fff"/>
    </g>
  </g>
</svg>
