<svg width="69" height="24" viewBox="0 0 69 24" fill="#FFFFFF" xmlns="http://www.w3.org/2000/svg">
<g clip-path="url(#clip0_11557_6997)">
<path d="M15.1762 17.3437L12.3821 12.0006L16.5625 4H12.8258L8.57659 12.0006L12.8258 20H17.4645L18.7672 17.5085H23.5448L22.1517 14.8375H20.1501L22.1415 11.032L26.8276 20H30.5011L22.1461 4L15.1762 17.3437ZM4 20H7.40027V4H4V20ZM52.184 17.3267L45.2254 4L36.8614 20H40.5382L45.2254 11.032L47.2146 14.8375H45.2254L43.8312 17.504H48.6076L49.9104 19.9966H55.5911V4H52.184V17.3267ZM38.3685 4L33.6835 12.968L28.9974 4H25.3228L33.6835 20L42.0442 4H38.3685ZM64.7465 4H61.0155L56.7651 12.0006L61.0155 20H64.7465L60.5695 12.0006L64.7465 4Z" fill="white"/>
</g>
<defs>
<clipPath id="clip0_11557_6997">
<rect width="60.7465" height="16" fill="white" transform="translate(4 4)"/>
</clipPath>
</defs>
</svg>
